<?xml version="1.0" encoding="utf-8"?>
<!-- Generator: Adobe Illustrator 27.0.1, SVG Export Plug-In . SVG Version: 6.00 Build 0)  -->
<svg version="1.1" id="Laag_1" xmlns="http://www.w3.org/2000/svg" xmlns:xlink="http://www.w3.org/1999/xlink" x="0px" y="0px"
	 viewBox="0 0 1280 216.62" style="enable-background:new 0 0 1280 216.62;" xml:space="preserve">
<style type="text/css">
	.st0{fill:#010202;}
</style>
<g>
	<path class="st0" d="M513.81,108.31h-102.7l75.29,108.31h102.7L513.81,108.31z"/>
	<path class="st0" d="M0,108.31h283.66l26.37,44.32c16.77,28.2-3.46,63.99-36.17,63.99H0V108.31z"/>
	<path class="st0" d="M744.02,108.31h-102.7l75.29,108.31h102.67L744.02,108.31z"/>
	<path class="st0" d="M974.35,108.31h-102.7l75.29,108.31h102.67L974.35,108.31z"/>
	<path class="st0" d="M1280,108.31h-177.95l75.26,108.31H1280V108.31z"/>
	<path class="st0" d="M486.4,0h102.7l-75.29,108.31h-102.7L486.4,0z"/>
	<path class="st0" d="M716.61,0h102.67l-75.25,108.31h-102.7L716.61,0z"/>
	<path class="st0" d="M946.94,0h102.67l-75.26,108.31h-102.7L946.94,0z"/>
	<path class="st0" d="M1177.3,0H1280v108.31h-177.95L1177.3,0z"/>
	<path class="st0" d="M0,0h273.86c32.71,0,52.94,35.79,36.17,63.99l-26.37,44.32H0V0z"/>
</g>
</svg>
